<?xml version="1.0" standalone="no"?><!DOCTYPE svg PUBLIC "-//W3C//DTD SVG 1.1//EN" "http://www.w3.org/Graphics/SVG/1.1/DTD/svg11.dtd"><svg t="1567410381001" class="icon" viewBox="0 0 1024 1024" version="1.1" xmlns="http://www.w3.org/2000/svg" p-id="2540" width="40" height="40" xmlns:xlink="http://www.w3.org/1999/xlink"><defs><style type="text/css"></style></defs><path d="M723.4304 508.60032c-54.12352 47.74912-125.9776 77.056-205.16352 77.056-80.36352 0-153.40032-30.2592-207.76448-79.42144-126.45376 33.09056-204.69248 146.0736-204.69248 281.04192v68.78208c0 160.96768 812.3904 160.96768 812.3904 0v-68.78208c-0.00512-131.41504-74.21952-242.5088-194.76992-278.67648z m-205.16352 28.12928c140.16512 0 254.09536-109.44 254.09536-244.63872S658.66752 47.21664 518.26688 47.21664c-139.9296 0-253.85472 109.67552-253.85472 244.87424 0 135.20384 113.92512 244.63872 253.85472 244.63872z m0 0" fill="#BFCBD9" p-id="2541"></path></svg>