<?xml version="1.0" standalone="no"?><!DOCTYPE svg PUBLIC "-//W3C//DTD SVG 1.1//EN" "http://www.w3.org/Graphics/SVG/1.1/DTD/svg11.dtd"><svg t="1567410950224" class="icon" viewBox="0 0 1024 1024" version="1.1" xmlns="http://www.w3.org/2000/svg" p-id="7887" xmlns:xlink="http://www.w3.org/1999/xlink" width="200" height="200"><defs><style type="text/css"></style></defs><path d="M354.016 0.112h269.424c12.56 0 22.208 9.664 22.208 22.208 0 12.544-9.648 22.208-22.208 22.208H354.016a21.856 21.856 0 0 1-22.208-22.208c0-11.584 9.648-22.208 22.208-22.208z m-134.224 292.592h538.832v45.376H219.792v-45.376z m0 0" fill="#BFCBD9" p-id="7888"></path><path d="M533.632 988.944H174.4c-86.912 0-157.408-70.496-157.408-157.392V157.504C16.992 70.608 87.488 0.112 174.4 0.112h89.808c12.56 0 22.208 9.664 22.208 22.208 0 12.544-9.648 22.208-22.208 22.208H174.4a112.096 112.096 0 0 0-112.016 112.016v674.032a112.112 112.112 0 0 0 112.016 112.016h359.216c12.56 0 22.224 9.664 22.224 22.224a22.336 22.336 0 0 1-22.208 24.128z m0 0" fill="#BFCBD9" p-id="7889"></path><path d="M212.064 651.936h374.672v45.392H212.064v-45.392z m0-179.616h374.672v45.376H212.064V472.32z m770.608 366.944l-151.616 168.032c-16.4 18.336-44.432 20.272-63.744 3.856l-3.84-3.856-151.616-168.032a45.52 45.52 0 0 1 2.896-63.728 45.008 45.008 0 0 1 29.936-11.6h61.792V584.336a45.344 45.344 0 0 1 45.392-45.408h89.792a45.344 45.344 0 0 1 45.392 45.408v179.6h61.808a45.36 45.36 0 0 1 45.392 45.392 44.896 44.896 0 0 1-11.584 29.936z m23.168-322.528c0 12.544-9.664 22.208-22.224 22.208a21.856 21.856 0 0 1-22.208-22.208V157.504c0-61.808-50.224-112-112.016-112h-135.2a21.872 21.872 0 0 1-22.208-22.224c0-12.544 9.664-22.208 22.208-22.208h135.2c86.912 0 157.392 70.496 157.392 157.408l-0.944 358.256z m0 0" fill="#BFCBD9" p-id="7890"></path><path d="M842.656 584.336h-89.824v224.992h-106.224l151.616 168.032 151.616-168.032h-106.224V584.336h-0.96z m0 0" fill="#BFCBD9" p-id="7891"></path></svg>