<?xml version="1.0" standalone="no"?><!DOCTYPE svg PUBLIC "-//W3C//DTD SVG 1.1//EN" "http://www.w3.org/Graphics/SVG/1.1/DTD/svg11.dtd"><svg t="1567410890913" class="icon" viewBox="0 0 1024 1024" version="1.1" xmlns="http://www.w3.org/2000/svg" p-id="7008" width="200" height="200" xmlns:xlink="http://www.w3.org/1999/xlink"><defs><style type="text/css"></style></defs><path d="M544.576 529.056h-46.56v-63.616l-155.168 93.088 155.168 93.088v-60.512h48.096c35.68 0 69.824 26.368 72.928 63.616 4.64 41.888-27.936 76.032-69.824 76.032h-116.384c-17.056 0-31.04 13.952-31.04 31.04s13.952 31.04 31.04 31.04h116.384c76.032 0 136.544-63.616 131.904-141.216-4.64-69.824-65.184-122.592-136.544-122.592zM868.896 155.104h-155.168V108.544c0-26.368-20.16-46.56-46.56-46.56h-310.336c-26.368 0-46.56 20.16-46.56 46.56v46.56H155.104c-26.368 0-46.56 20.16-46.56 46.56v713.792c0 26.368 20.16 46.56 46.56 46.56h713.792c26.368 0 46.56-20.16 46.56-46.56V201.664c0-26.368-20.16-46.56-46.56-46.56z m-496.544-31.04h279.296v124.128h-279.296V124.064z m481.024 775.872H170.624V217.184h139.648v46.56c0 26.368 20.16 46.56 46.56 46.56h310.336c26.368 0 46.56-20.16 46.56-46.56V217.184h139.648v682.752z" fill="#BFCBD9" p-id="7009"></path></svg>