<?xml version="1.0" standalone="no"?><!DOCTYPE svg PUBLIC "-//W3C//DTD SVG 1.1//EN" "http://www.w3.org/Graphics/SVG/1.1/DTD/svg11.dtd"><svg t="1567410764615" class="icon" viewBox="0 0 1024 1024" version="1.1" xmlns="http://www.w3.org/2000/svg" p-id="6017" width="300" height="300" xmlns:xlink="http://www.w3.org/1999/xlink"><defs><style type="text/css"></style></defs><path d="M321.802354 779.947299V716.421538c0-14.411814-8.760866-29.961404-23.248532-39.480786A367.387492 367.387492 0 0 1 132.742103 369.172661C132.362845 165.245486 295.102571-0.755862 496.9059 0.002655 697.988638 0.761171 860.917993 166.041928 860.917993 369.096809a367.008234 367.008234 0 0 1-167.442529 308.792088c-13.53952 8.798792-21.731499 23.210606-21.731499 36.560498v65.497904c0 41.71841-21.010908 79.492535-54.044304 101.641218v7.433463c0 67.318344-54.233933 122.045313-120.907539 122.045313-66.749457 0-120.945464-54.726969-120.945464-122.045313v-7.433463a122.34872 122.34872 0 0 1-54.044304-101.641218z m202.7894 124.320863v-28.292667H468.006419v28.292667a28.330593 28.330593 0 0 0 56.585335 0z m56.585335-113.170669v-28.292668H411.421084v28.292668c0 15.587515 12.705152 28.292667 28.292668 28.292667h113.170669a28.330593 28.330593 0 0 0 28.292668-28.292667z m67.849305-188.567215a281.826825 281.826825 0 0 0 130.199367-237.719088c0-156.064781-126.520561-284.633336-284.254078-284.633336-157.050852 0-279.892608 127.468707-281.447567 280.87868a282.433638 282.433638 0 0 0 128.834036 240.715227c37.015608 24.082901 61.819099 62.956874 67.735528 104.44773H468.006419v-75.093139l-48.279578-48.279579a28.292667 28.292667 0 1 1 40.011748-40.011748l36.560498 36.598424 36.598423-36.560498a28.292667 28.292667 0 1 1 40.011748 40.011748l-48.317504 48.279579v75.055213h57.685184c5.347542-41.301226 29.885552-79.947645 66.749456-103.689213zM539.686233 304.698754c21.010908 0 34.664206 22.186609 25.296527 40.959894l-56.585334 113.132743a28.292667 28.292667 0 0 1-50.593054-25.296527l36.105387-72.210775H426.55349a28.292667 28.292667 0 0 1-25.410305-40.770265L457.766446 205.446863a28.292667 28.292667 0 1 1 50.820609 24.955194l-36.560498 74.296697h67.735528z" p-id="6018" fill="#BFCBD9"></path></svg>